<?xml version="1.0" encoding="UTF-8" standalone="no"?>
<svg
   xmlns:dc="http://purl.org/dc/elements/1.1/"
   xmlns:cc="http://creativecommons.org/ns#"
   xmlns:rdf="http://www.w3.org/1999/02/22-rdf-syntax-ns#"
   xmlns:svg="http://www.w3.org/2000/svg"
   xmlns="http://www.w3.org/2000/svg"
   xmlns:sodipodi="http://sodipodi.sourceforge.net/DTD/sodipodi-0.dtd"
   xmlns:inkscape="http://www.inkscape.org/namespaces/inkscape"
   width="512"
   height="512"
   viewBox="0 0 135.46666 135.46666"
   version="1.1"
   id="svg8"
   inkscape:version="1.0.2-2 (e86c870879, 2021-01-15)"
   sodipodi:docname="app_icon.svg">
  <defs
     id="defs2" />
  <sodipodi:namedview
     id="base"
     pagecolor="#ffffff"
     bordercolor="#666666"
     borderopacity="1.0"
     inkscape:pageopacity="0.0"
     inkscape:pageshadow="2"
     inkscape:zoom="1.4"
     inkscape:cx="253.57741"
     inkscape:cy="269.18656"
     inkscape:document-units="px"
     inkscape:current-layer="layer1"
     inkscape:document-rotation="0"
     showgrid="false"
     units="px"
     inkscape:snap-text-baseline="true"
     inkscape:window-width="1920"
     inkscape:window-height="1057"
     inkscape:window-x="1358"
     inkscape:window-y="-8"
     inkscape:window-maximized="1" />
  <metadata
     id="metadata5">
    <rdf:RDF>
      <cc:Work
         rdf:about="">
        <dc:format>image/svg+xml</dc:format>
        <dc:type
           rdf:resource="http://purl.org/dc/dcmitype/StillImage" />
        <dc:title></dc:title>
      </cc:Work>
    </rdf:RDF>
  </metadata>
  <g
     inkscape:label="Layer 1"
     inkscape:groupmode="layer"
     id="layer1">
    <g
       aria-label="G"
       id="text12"
       style="font-style:normal;font-weight:normal;font-size:178.495px;line-height:1.25;font-family:sans-serif;fill:#000000;fill-opacity:1;stroke:none;stroke-width:4.4624"
       transform="translate(-5.8208327)">
      <path
         d="m 128.91667,125.12539 c -5.81038,2.26605 -13.50914,4.5321 -23.09627,6.79815 -9.587136,2.20795 -19.145219,3.31192 -28.674248,3.31192 -22.079459,0 -39.365352,-5.9847 -51.857677,-17.95409 C 12.79615,105.25388 6.5499869,88.665231 6.5499869,67.515434 c 0,-20.162033 6.3042671,-36.402056 18.9128001,-48.72007 C 38.07132,6.4192465 55.647731,0.2311877 78.192021,0.2311877 c 8.541265,0 16.675801,0.7844018 24.403609,2.3532055 7.72781,1.5106998 16.32718,4.5611514 25.79811,9.1513548 -16.35755,38.06301 -34.758843,5.642212 -62.229214,15.339414 -4.822619,1.743115 -9.151355,4.415891 -12.986208,8.018329 -3.660542,3.486231 -6.565734,7.931175 -8.715576,13.334832 -2.091738,5.345553 -3.137607,11.533611 -3.137607,18.564176 0,14.351649 3.805801,25.333274 11.417404,32.944877 7.611603,7.611604 18.854696,11.417404 33.729279,11.417404 1.278285,0 2.672777,-0.0291 4.183477,-0.0872 1.568803,-0.0581 2.992347,-0.14529 4.270632,-0.26147 V 85.556676 H 69.040666 c 57.856454,-33.226184 60.064994,-1.02468 59.876004,39.568714 z"
         style="font-style:normal;font-variant:normal;font-weight:bold;font-stretch:normal;font-size:178.495px;font-family:sans-serif;-inkscape-font-specification:'sans-serif, Bold';font-variant-ligatures:normal;font-variant-caps:normal;font-variant-numeric:normal;font-variant-east-asian:normal;stroke-width:4.4624"
         id="path14"
         sodipodi:nodetypes="ccscscscccccsssccccc" />
    </g>
    <text
       xml:space="preserve"
       style="font-style:normal;font-weight:normal;font-size:30.6167px;line-height:1.25;font-family:sans-serif;fill:#ffffff;fill-opacity:1;stroke:none;stroke-width:0.765418"
       x="92.569443"
       y="114.81685"
       id="text19"><tspan
         sodipodi:role="line"
         id="tspan17"
         x="92.569443"
         y="114.81685"
         style="font-style:normal;font-variant:normal;font-weight:bold;font-stretch:normal;font-size:30.6167px;font-family:sans-serif;-inkscape-font-specification:'sans-serif, Bold';font-variant-ligatures:normal;font-variant-caps:normal;font-variant-numeric:normal;font-variant-east-asian:normal;fill:#ffffff;stroke-width:0.765418">H</tspan></text>
    <text
       xml:space="preserve"
       style="font-style:normal;font-weight:normal;font-size:10.5833px;line-height:1.25;font-family:sans-serif;fill:#000000;fill-opacity:1;stroke:none;stroke-width:0.264583"
       x="44.525593"
       y="53.29464"
       id="text23"><tspan
         sodipodi:role="line"
         id="tspan21"
         x="44.525593"
         y="53.29464"
         style="stroke-width:0.264583">Repo</tspan><tspan
         sodipodi:role="line"
         x="44.525593"
         y="66.523766"
         style="stroke-width:0.264583"
         id="tspan25">Commit Timeline</tspan></text>
  </g>
</svg>
